<svg xmlns="http://www.w3.org/2000/svg" width="260.00912mm" height="300mm" viewBox="0 0 260.00912 300"><g style="fill:#fff"><g style="fill:#fff"><path d="M0 0s-5.465-1.828-5.208-4.892c.415-4.976 18.662-1.657 32.52 4.127 0 0-33.298-18.219-41.041-8.954 0 0-1.253 3.395 2.857 5.817C-5.841-.936 0 0 0 0" style="fill:#fff;fill-opacity:1;fill-rule:nonzero;stroke:none" transform="matrix(5.04617 0 0 -5.04617 80.663 56.106)"/></g><g style="fill:#fff"><path d="M0 0c3.405.659-2.931-2.615-2.931-2.615l-35.071-19.182s-5.463-2.475-5.291-5.85c.123-2.412 7.529 1.056 12.706 3.613-.682-.298-1.195-.506-1.493-.591-2.744-.788 5.597 3.712 5.597 3.712L.575-6.111S8.243-2.041 8.229.905C8.214 3.852 0 0 0 0" style="fill:#fff;fill-opacity:1;fill-rule:nonzero;stroke:none" transform="matrix(5.04617 0 0 -5.04617 218.484 59.967)"/></g><g style="fill:#fff"><path d="M0 0c-.04-2.852-7.651-6.884-7.651-6.884-13.55-8.696-9.493-16.495-9.493-16.495 1.945-4.718 6.216-4.332 10.92.81 4.702 5.14-.495 5.533-3.458 7.894-2.966 2.36 1.303 5.593 1.303 5.593s3.682 2.256 11.935 6.531c8.842 4.581 8.681 7.703 8.681 7.703-.02 5.64-15.87-2.194-27.514-8.114C-11.359-1.469.055 4.013 0 0" style="fill:#fff;fill-opacity:1;fill-rule:nonzero;stroke:none" transform="matrix(5.04617 0 0 -5.04617 142.989 165.342)"/></g><g style="fill:#fff"><path d="M0 0c3.667 0 6.636 2.946 6.636 6.58 0 3.633-2.969 6.579-6.636 6.579-3.665 0-6.638-2.946-6.638-6.579C-6.638 2.946-3.665 0 0 0" style="fill:#fff;fill-opacity:1;fill-rule:nonzero;stroke:none" transform="matrix(5.04617 0 0 -5.04617 112.377 66.403)"/></g></g></svg>